<svg xmlns="http://www.w3.org/2000/svg" xmlns:xlink="http://www.w3.org/1999/xlink" width="500" zoomAndPan="magnify" viewBox="0 0 375 374.999991" height="500" preserveAspectRatio="xMidYMid meet" version="1.0"><defs><g/><clipPath id="0f325e8146"><path d="M 184 142 L 191 142 L 191 150 L 184 150 Z M 184 142 " clip-rule="nonzero"/></clipPath><clipPath id="31551a3df3"><path d="M 168.367188 130.339844 L 168.367188 162.402344 C 168.367188 163.230469 169.039062 163.902344 169.867188 163.902344 L 205.132812 163.902344 C 205.960938 163.902344 206.632812 163.230469 206.632812 162.402344 L 206.632812 130.339844 C 206.632812 129.511719 205.960938 128.839844 205.132812 128.839844 L 169.867188 128.839844 C 169.039062 128.839844 168.367188 129.511719 168.367188 130.339844 Z M 168.367188 130.339844 " clip-rule="nonzero"/></clipPath><clipPath id="c42d01b877"><path d="M 168.367188 129 L 206.617188 129 L 206.617188 164 L 168.367188 164 Z M 168.367188 129 " clip-rule="nonzero"/></clipPath><clipPath id="d4a59a9964"><path d="M 168.367188 130.339844 L 168.367188 162.402344 C 168.367188 163.230469 169.039062 163.902344 169.867188 163.902344 L 205.132812 163.902344 C 205.960938 163.902344 206.632812 163.230469 206.632812 162.402344 L 206.632812 130.339844 C 206.632812 129.511719 205.960938 128.839844 205.132812 128.839844 L 169.867188 128.839844 C 169.039062 128.839844 168.367188 129.511719 168.367188 130.339844 Z M 168.367188 130.339844 " clip-rule="nonzero"/></clipPath></defs><rect x="-37.5" width="450" fill="#ffffff" y="-37.499999" height="449.999989" fill-opacity="1"/><rect x="-37.5" width="450" fill="#ffffff" y="-37.499999" height="449.999989" fill-opacity="1"/><path stroke-linecap="butt" transform="matrix(0.75, 0.000000000000000119, -0.000000000000000119, 0.75, 23.677422, 145.620958)" fill="none" stroke-linejoin="miter" d="M -0.00218807 1.000182 L 178.430115 1.000182 " stroke="#162a2c" stroke-width="2" stroke-opacity="1" stroke-miterlimit="4"/><path stroke-linecap="butt" transform="matrix(0.75, 0, 0, 0.75, 216.479023, 145.620958)" fill="none" stroke-linejoin="miter" d="M 0.00192755 1.000182 L 178.288398 1.000182 " stroke="#162a2c" stroke-width="2" stroke-opacity="1" stroke-miterlimit="4"/><path stroke-linecap="butt" transform="matrix(0.000000001309, -0.75, 0.75, 0.000000001309, 23.677005, 236.535424)" fill="none" stroke-linejoin="miter" d="M 0.000356558 0.998368 L 120.219114 0.998368 " stroke="#162a2c" stroke-width="2" stroke-opacity="1" stroke-miterlimit="4"/><path stroke-linecap="butt" transform="matrix(0.000000001309, -0.75, 0.75, 0.000000001309, 348.693116, 236.535424)" fill="none" stroke-linejoin="miter" d="M 0.000356558 0.99772 L 120.219114 0.99772 " stroke="#162a2c" stroke-width="2" stroke-opacity="1" stroke-miterlimit="4"/><path stroke-linecap="butt" transform="matrix(0.75, 0, 0, 0.75, 23.677422, 235.785863)" fill="none" stroke-linejoin="miter" d="M -0.00218807 0.999058 L 435.357216 0.999058 " stroke="#162a2c" stroke-width="2" stroke-opacity="1" stroke-miterlimit="4"/><g clip-path="url(#0f325e8146)"><g clip-path="url(#31551a3df3)"><path fill="#000000" d="M 187.492188 142.941406 C 185.601562 142.941406 184.070312 144.480469 184.070312 146.382812 C 184.070312 148.285156 185.601562 149.824219 187.492188 149.824219 C 189.382812 149.824219 190.914062 148.285156 190.914062 146.382812 C 190.914062 144.480469 189.382812 142.941406 187.492188 142.941406 Z M 187.492188 142.941406 " fill-opacity="1" fill-rule="nonzero"/></g></g><g clip-path="url(#c42d01b877)"><g clip-path="url(#d4a59a9964)"><path fill="#000000" d="M 175.558594 152.476562 C 175.898438 152.589844 176.234375 152.703125 176.578125 152.800781 C 176.464844 153.25 176.367188 153.695312 176.277344 154.152344 C 175.492188 158.324219 176.105469 161.628906 178.0625 162.761719 C 180.082031 163.933594 183.472656 162.734375 186.773438 159.824219 C 187.035156 159.59375 187.296875 159.351562 187.558594 159.097656 C 187.886719 159.417969 188.230469 159.726562 188.574219 160.027344 C 191.769531 162.792969 194.929688 163.910156 196.882812 162.777344 C 198.898438 161.605469 199.554688 158.050781 198.703125 153.726562 C 198.636719 153.394531 198.5625 153.058594 198.480469 152.710938 C 198.71875 152.644531 198.949219 152.566406 199.183594 152.492188 C 203.492188 151.058594 206.617188 148.734375 206.617188 146.355469 C 206.617188 144.078125 203.671875 141.871094 199.609375 140.464844 L 199.609375 140.460938 C 199.207031 140.328125 198.800781 140.199219 198.398438 140.078125 C 198.464844 139.800781 198.527344 139.523438 198.585938 139.246094 C 199.503906 134.769531 198.898438 131.171875 196.859375 129.984375 C 194.894531 128.847656 191.6875 130.027344 188.449219 132.867188 C 188.125 133.144531 187.8125 133.4375 187.511719 133.730469 C 187.3125 133.535156 187.101562 133.339844 186.894531 133.152344 C 183.492188 130.117188 180.089844 128.839844 178.046875 130.035156 C 176.089844 131.179688 175.507812 134.566406 176.332031 138.800781 C 176.414062 139.222656 176.503906 139.636719 176.605469 140.058594 C 176.128906 140.191406 175.65625 140.34375 175.214844 140.5 C 171.226562 141.890625 168.367188 144.085938 168.367188 146.355469 C 168.367188 148.699219 171.414062 151.046875 175.558594 152.476562 Z M 185.71875 158.597656 C 184.488281 159.730469 183.0625 160.632812 181.507812 161.25 C 180.679688 161.648438 179.722656 161.6875 178.867188 161.347656 C 177.683594 160.65625 177.1875 158.003906 177.859375 154.433594 C 177.941406 154.015625 178.03125 153.59375 178.136719 153.179688 C 179.808594 153.539062 181.496094 153.789062 183.207031 153.914062 C 184.195312 155.320312 185.277344 156.667969 186.4375 157.925781 C 186.195312 158.160156 185.957031 158.386719 185.71875 158.597656 Z M 195.207031 144.488281 C 194.859375 143.828125 194.5 143.167969 194.125 142.523438 C 193.757812 141.882812 193.375 141.253906 192.980469 140.628906 C 194.183594 140.78125 195.335938 140.980469 196.410156 141.230469 C 196.066406 142.34375 195.664062 143.425781 195.207031 144.488281 Z M 195.222656 148.230469 C 195.699219 149.320312 196.121094 150.425781 196.484375 151.558594 C 195.324219 151.824219 194.15625 152.027344 192.972656 152.160156 C 193.375 151.53125 193.757812 150.882812 194.132812 150.238281 C 194.511719 149.574219 194.871094 148.90625 195.222656 148.230469 Z M 194.359375 146.363281 C 193.859375 147.398438 193.320312 148.421875 192.746094 149.425781 C 192.179688 150.425781 191.574219 151.394531 190.9375 152.355469 C 189.824219 152.441406 188.667969 152.476562 187.496094 152.476562 C 186.320312 152.476562 185.1875 152.441406 184.089844 152.371094 C 183.4375 151.417969 182.828125 150.441406 182.25 149.441406 C 181.675781 148.441406 181.144531 147.429688 180.644531 146.390625 L 180.640625 146.390625 C 181.132812 145.355469 181.671875 144.339844 182.238281 143.339844 C 182.808594 142.34375 183.421875 141.371094 184.0625 140.417969 C 185.183594 140.335938 186.324219 140.289062 187.492188 140.289062 C 188.660156 140.289062 189.808594 140.335938 190.921875 140.417969 C 191.558594 141.367188 192.164062 142.335938 192.738281 143.328125 C 193.3125 144.320312 193.851562 145.332031 194.359375 146.363281 Z M 180.847656 142.535156 C 180.480469 143.175781 180.125 143.828125 179.785156 144.488281 C 179.316406 143.371094 178.921875 142.273438 178.589844 141.214844 C 179.667969 140.972656 180.808594 140.777344 181.996094 140.628906 C 181.605469 141.25 181.214844 141.890625 180.847656 142.535156 Z M 179.789062 148.289062 C 180.132812 148.953125 180.484375 149.605469 180.855469 150.25 C 181.238281 150.90625 181.625 151.558594 182.039062 152.199219 C 180.871094 152.070312 179.714844 151.882812 178.570312 151.632812 C 178.898438 150.550781 179.308594 149.433594 179.789062 148.289062 Z M 187.550781 156.769531 C 186.789062 155.945312 186.027344 155.03125 185.289062 154.042969 C 186.003906 154.074219 186.746094 154.089844 187.492188 154.089844 C 188.261719 154.089844 189.015625 154.074219 189.765625 154.035156 C 189.078125 154.988281 188.335938 155.898438 187.550781 156.769531 Z M 197.316406 159.027344 C 197.25 159.941406 196.800781 160.796875 196.082031 161.375 C 194.894531 162.066406 192.363281 161.167969 189.628906 158.808594 C 189.3125 158.535156 189 158.242188 188.679688 157.945312 C 189.824219 156.675781 190.875 155.328125 191.832031 153.917969 C 193.542969 153.773438 195.246094 153.511719 196.929688 153.128906 C 197.003906 153.4375 197.070312 153.746094 197.128906 154.046875 C 197.496094 155.667969 197.554688 157.359375 197.316406 159.027344 Z M 197.964844 141.628906 C 198.355469 141.738281 198.726562 141.859375 199.085938 141.980469 C 202.566406 143.183594 205.007812 144.972656 205.007812 146.339844 C 205.007812 147.8125 202.402344 149.710938 198.675781 150.949219 C 198.464844 151.019531 198.257812 151.085938 198.039062 151.144531 C 197.515625 149.507812 196.875 147.910156 196.136719 146.351562 C 196.851562 144.820312 197.457031 143.242188 197.964844 141.628906 Z M 189.5 134.085938 C 192.28125 131.652344 194.871094 130.699219 196.054688 131.382812 C 197.316406 132.109375 197.800781 135.054688 197.007812 138.921875 C 196.957031 139.179688 196.902344 139.425781 196.835938 139.675781 C 195.179688 139.300781 193.496094 139.03125 191.808594 138.878906 C 190.839844 137.480469 189.777344 136.144531 188.625 134.886719 C 188.917969 134.609375 189.203125 134.347656 189.5 134.085938 Z M 187.507812 136.039062 C 188.292969 136.894531 189.03125 137.796875 189.71875 138.726562 C 188.238281 138.660156 186.75 138.660156 185.273438 138.726562 C 186.003906 137.757812 186.757812 136.859375 187.507812 136.039062 Z M 178.839844 131.433594 C 180.097656 130.699219 182.882812 131.75 185.816406 134.363281 C 186.003906 134.527344 186.191406 134.710938 186.386719 134.890625 C 185.226562 136.144531 184.160156 137.480469 183.179688 138.878906 C 181.492188 139.027344 179.820312 139.289062 178.160156 139.660156 C 178.0625 139.277344 177.980469 138.886719 177.898438 138.492188 C 177.195312 134.855469 177.660156 132.117188 178.839844 131.433594 Z M 175.742188 142.023438 C 176.164062 141.875 176.597656 141.738281 177.03125 141.613281 C 177.542969 143.242188 178.152344 144.84375 178.863281 146.390625 C 178.144531 147.960938 177.527344 149.582031 177.011719 151.234375 L 177.007812 151.234375 C 176.695312 151.144531 176.390625 151.046875 176.082031 150.941406 C 174.492188 150.441406 172.683594 149.644531 171.375 148.597656 C 170.621094 148.074219 170.113281 147.261719 169.972656 146.351562 C 169.972656 144.976562 172.332031 143.21875 175.742188 142.023438 Z M 175.742188 142.023438 " fill-opacity="1" fill-rule="nonzero"/></g></g><g fill="#5e6c5b" fill-opacity="1"><g transform="translate(59.578202, 200.453411)"><g><path d="M 16.28125 -5.78125 C 16.1875 -5.78125 16.09375 -5.675781 16 -5.46875 C 15.65625 -4.695312 15.28125 -3.972656 14.875 -3.296875 C 14.476562 -2.617188 14.023438 -2.03125 13.515625 -1.53125 C 13.003906 -1.039062 12.429688 -0.65625 11.796875 -0.375 C 11.171875 -0.101562 10.476562 0.03125 9.71875 0.03125 C 7.988281 0.03125 6.707031 -0.640625 5.875 -1.984375 C 5.039062 -3.335938 4.625 -5.316406 4.625 -7.921875 L 4.625 -11.125 C 4.625 -13.632812 5.050781 -15.566406 5.90625 -16.921875 C 6.757812 -18.285156 8.078125 -18.96875 9.859375 -18.96875 C 10.609375 -18.96875 11.285156 -18.847656 11.890625 -18.609375 C 12.492188 -18.367188 13.039062 -18.039062 13.53125 -17.625 C 14.03125 -17.207031 14.460938 -16.703125 14.828125 -16.109375 C 15.191406 -15.523438 15.488281 -14.890625 15.71875 -14.203125 C 15.769531 -14.015625 15.832031 -13.921875 15.90625 -13.921875 C 16 -13.921875 16.046875 -14.03125 16.046875 -14.25 L 16.046875 -18.90625 C 16.046875 -19.070312 16.023438 -19.179688 15.984375 -19.234375 C 15.953125 -19.296875 15.898438 -19.328125 15.828125 -19.328125 C 15.734375 -19.328125 15.609375 -19.253906 15.453125 -19.109375 L 14.34375 -17.96875 C 13.738281 -18.457031 13.054688 -18.828125 12.296875 -19.078125 C 11.535156 -19.335938 10.722656 -19.46875 9.859375 -19.46875 C 8.609375 -19.46875 7.445312 -19.179688 6.375 -18.609375 C 5.300781 -18.046875 4.367188 -17.296875 3.578125 -16.359375 C 2.785156 -15.429688 2.171875 -14.375 1.734375 -13.1875 C 1.296875 -12 1.078125 -10.796875 1.078125 -9.578125 C 1.078125 -8.171875 1.328125 -6.851562 1.828125 -5.625 C 2.335938 -4.40625 3 -3.335938 3.8125 -2.421875 C 4.632812 -1.515625 5.554688 -0.789062 6.578125 -0.25 C 7.609375 0.28125 8.65625 0.546875 9.71875 0.546875 C 10.613281 0.546875 11.46875 0.367188 12.28125 0.015625 C 13.101562 -0.335938 13.835938 -0.875 14.484375 -1.59375 L 16 0.0625 C 16.09375 0.15625 16.175781 0.203125 16.25 0.203125 C 16.363281 0.203125 16.421875 0.132812 16.421875 0 L 16.421875 -5.5 C 16.421875 -5.6875 16.375 -5.78125 16.28125 -5.78125 Z M 16.28125 -5.78125 "/></g></g></g><g fill="#5e6c5b" fill-opacity="1"><g transform="translate(81.134148, 200.453411)"><g><path d="M 0.625 -0.453125 L 0.625 0 L 6.953125 0 L 6.953125 -0.453125 L 3.59375 -0.453125 L 5.390625 -5.953125 L 11.125 -5.953125 L 12.96875 -0.453125 L 10.03125 -0.453125 L 10.03125 0 L 18.390625 0 L 18.390625 -0.453125 L 15.90625 -0.453125 L 9.671875 -19.421875 L 9.328125 -19.421875 L 3.078125 -0.453125 Z M 8.234375 -14.578125 L 10.984375 -6.421875 L 5.5625 -6.421875 Z M 8.234375 -14.578125 "/></g></g></g><g fill="#5e6c5b" fill-opacity="1"><g transform="translate(104.058657, 200.453411)"><g><path d="M 15.828125 -5.28125 C 15.671875 -4.550781 15.503906 -3.890625 15.328125 -3.296875 C 15.160156 -2.710938 14.9375 -2.207031 14.65625 -1.78125 C 14.375 -1.351562 14.015625 -1.023438 13.578125 -0.796875 C 13.140625 -0.566406 12.585938 -0.453125 11.921875 -0.453125 L 6.078125 -0.453125 L 6.078125 -18.703125 L 8.78125 -18.703125 L 8.78125 -19.15625 L 0.859375 -19.15625 L 0.859375 -18.703125 L 3.3125 -18.703125 L 3.3125 -0.453125 L 0.859375 -0.453125 L 0.859375 0 L 15.546875 0 C 16.097656 0 16.375 -0.300781 16.375 -0.90625 L 16.375 -5.1875 C 16.375 -5.644531 16.296875 -5.875 16.140625 -5.875 C 16.003906 -5.875 15.898438 -5.675781 15.828125 -5.28125 Z M 15.828125 -5.28125 "/></g></g></g><g fill="#5e6c5b" fill-opacity="1"><g transform="translate(125.215443, 200.453411)"><g><path d="M 0.96875 -0.453125 L 0.96875 0 L 5.984375 0 L 5.984375 -0.453125 L 3.703125 -0.453125 L 3.703125 -18.21875 L 10.0625 0 L 10.4375 0 L 16.796875 -18.328125 L 16.796875 -0.453125 L 14.515625 -0.453125 L 14.515625 0 L 21.84375 0 L 21.84375 -0.453125 L 19.5625 -0.453125 L 19.5625 -18.703125 L 21.84375 -18.703125 L 21.84375 -19.15625 L 16.5625 -19.15625 L 11.484375 -4.5 L 6.25 -19.15625 L 0.96875 -19.15625 L 0.96875 -18.703125 L 3.25 -18.703125 L 3.25 -0.453125 Z M 0.96875 -0.453125 "/></g></g></g><g fill="#5e6c5b" fill-opacity="1"><g transform="translate(152.017544, 200.453411)"><g/></g></g><g fill="#5e6c5b" fill-opacity="1"><g transform="translate(163.76547, 200.453411)"><g><path d="M 16.28125 -5.78125 C 16.1875 -5.78125 16.09375 -5.675781 16 -5.46875 C 15.65625 -4.695312 15.28125 -3.972656 14.875 -3.296875 C 14.476562 -2.617188 14.023438 -2.03125 13.515625 -1.53125 C 13.003906 -1.039062 12.429688 -0.65625 11.796875 -0.375 C 11.171875 -0.101562 10.476562 0.03125 9.71875 0.03125 C 7.988281 0.03125 6.707031 -0.640625 5.875 -1.984375 C 5.039062 -3.335938 4.625 -5.316406 4.625 -7.921875 L 4.625 -11.125 C 4.625 -13.632812 5.050781 -15.566406 5.90625 -16.921875 C 6.757812 -18.285156 8.078125 -18.96875 9.859375 -18.96875 C 10.609375 -18.96875 11.285156 -18.847656 11.890625 -18.609375 C 12.492188 -18.367188 13.039062 -18.039062 13.53125 -17.625 C 14.03125 -17.207031 14.460938 -16.703125 14.828125 -16.109375 C 15.191406 -15.523438 15.488281 -14.890625 15.71875 -14.203125 C 15.769531 -14.015625 15.832031 -13.921875 15.90625 -13.921875 C 16 -13.921875 16.046875 -14.03125 16.046875 -14.25 L 16.046875 -18.90625 C 16.046875 -19.070312 16.023438 -19.179688 15.984375 -19.234375 C 15.953125 -19.296875 15.898438 -19.328125 15.828125 -19.328125 C 15.734375 -19.328125 15.609375 -19.253906 15.453125 -19.109375 L 14.34375 -17.96875 C 13.738281 -18.457031 13.054688 -18.828125 12.296875 -19.078125 C 11.535156 -19.335938 10.722656 -19.46875 9.859375 -19.46875 C 8.609375 -19.46875 7.445312 -19.179688 6.375 -18.609375 C 5.300781 -18.046875 4.367188 -17.296875 3.578125 -16.359375 C 2.785156 -15.429688 2.171875 -14.375 1.734375 -13.1875 C 1.296875 -12 1.078125 -10.796875 1.078125 -9.578125 C 1.078125 -8.171875 1.328125 -6.851562 1.828125 -5.625 C 2.335938 -4.40625 3 -3.335938 3.8125 -2.421875 C 4.632812 -1.515625 5.554688 -0.789062 6.578125 -0.25 C 7.609375 0.28125 8.65625 0.546875 9.71875 0.546875 C 10.613281 0.546875 11.46875 0.367188 12.28125 0.015625 C 13.101562 -0.335938 13.835938 -0.875 14.484375 -1.59375 L 16 0.0625 C 16.09375 0.15625 16.175781 0.203125 16.25 0.203125 C 16.363281 0.203125 16.421875 0.132812 16.421875 0 L 16.421875 -5.5 C 16.421875 -5.6875 16.375 -5.78125 16.28125 -5.78125 Z M 16.28125 -5.78125 "/></g></g></g><g fill="#5e6c5b" fill-opacity="1"><g transform="translate(185.321411, 200.453411)"><g><path d="M 9.984375 0.546875 C 11.203125 0.546875 12.347656 0.265625 13.421875 -0.296875 C 14.492188 -0.859375 15.425781 -1.601562 16.21875 -2.53125 C 17.019531 -3.46875 17.648438 -4.539062 18.109375 -5.75 C 18.578125 -6.957031 18.8125 -8.207031 18.8125 -9.5 C 18.8125 -10.789062 18.578125 -12.039062 18.109375 -13.25 C 17.648438 -14.457031 17.019531 -15.519531 16.21875 -16.4375 C 15.425781 -17.363281 14.492188 -18.097656 13.421875 -18.640625 C 12.347656 -19.191406 11.203125 -19.46875 9.984375 -19.46875 C 8.765625 -19.46875 7.617188 -19.191406 6.546875 -18.640625 C 5.472656 -18.097656 4.535156 -17.363281 3.734375 -16.4375 C 2.929688 -15.519531 2.296875 -14.457031 1.828125 -13.25 C 1.367188 -12.039062 1.140625 -10.789062 1.140625 -9.5 C 1.140625 -8.207031 1.367188 -6.957031 1.828125 -5.75 C 2.296875 -4.539062 2.929688 -3.46875 3.734375 -2.53125 C 4.535156 -1.601562 5.472656 -0.859375 6.546875 -0.296875 C 7.617188 0.265625 8.765625 0.546875 9.984375 0.546875 Z M 9.984375 -18.96875 C 10.835938 -18.96875 11.597656 -18.832031 12.265625 -18.5625 C 12.929688 -18.300781 13.484375 -17.851562 13.921875 -17.21875 C 14.367188 -16.59375 14.710938 -15.765625 14.953125 -14.734375 C 15.191406 -13.710938 15.3125 -12.441406 15.3125 -10.921875 L 15.3125 -8.0625 C 15.3125 -5.3125 14.851562 -3.273438 13.9375 -1.953125 C 13.03125 -0.628906 11.710938 0.03125 9.984375 0.03125 C 8.253906 0.03125 6.929688 -0.628906 6.015625 -1.953125 C 5.097656 -3.273438 4.640625 -5.3125 4.640625 -8.0625 L 4.640625 -10.921875 C 4.640625 -12.398438 4.757812 -13.648438 5 -14.671875 C 5.238281 -15.691406 5.582031 -16.519531 6.03125 -17.15625 C 6.476562 -17.789062 7.035156 -18.25 7.703125 -18.53125 C 8.367188 -18.820312 9.128906 -18.96875 9.984375 -18.96875 Z M 9.984375 -18.96875 "/></g></g></g><g fill="#5e6c5b" fill-opacity="1"><g transform="translate(209.101271, 200.453411)"><g><path d="M 0.765625 -0.453125 L 0.765625 0 L 6.125 0 L 6.125 -0.453125 L 3.671875 -0.453125 L 3.671875 -17.875 L 14.71875 0.234375 L 15.6875 0.234375 L 15.6875 -18.703125 L 18.140625 -18.703125 L 18.140625 -19.15625 L 12.78125 -19.15625 L 12.78125 -18.703125 L 15.234375 -18.703125 L 15.234375 -4.703125 L 6.390625 -19.15625 L 0.765625 -19.15625 L 0.765625 -18.703125 L 3.21875 -18.703125 L 3.21875 -0.453125 Z M 0.765625 -0.453125 "/></g></g></g><g fill="#5e6c5b" fill-opacity="1"><g transform="translate(231.911736, 200.453411)"><g><path d="M 0.765625 -0.453125 L 0.765625 0 L 6.125 0 L 6.125 -0.453125 L 3.671875 -0.453125 L 3.671875 -17.875 L 14.71875 0.234375 L 15.6875 0.234375 L 15.6875 -18.703125 L 18.140625 -18.703125 L 18.140625 -19.15625 L 12.78125 -19.15625 L 12.78125 -18.703125 L 15.234375 -18.703125 L 15.234375 -4.703125 L 6.390625 -19.15625 L 0.765625 -19.15625 L 0.765625 -18.703125 L 3.21875 -18.703125 L 3.21875 -0.453125 Z M 0.765625 -0.453125 "/></g></g></g><g fill="#5e6c5b" fill-opacity="1"><g transform="translate(254.722202, 200.453411)"><g><path d="M 6.15625 -9.859375 L 8.40625 -9.859375 C 8.832031 -9.859375 9.164062 -9.796875 9.40625 -9.671875 C 9.65625 -9.554688 9.847656 -9.382812 9.984375 -9.15625 C 10.128906 -8.925781 10.238281 -8.648438 10.3125 -8.328125 C 10.394531 -8.003906 10.472656 -7.644531 10.546875 -7.25 C 10.609375 -6.976562 10.6875 -6.84375 10.78125 -6.84375 C 10.894531 -6.84375 10.953125 -6.96875 10.953125 -7.21875 L 10.953125 -13 C 10.953125 -13.226562 10.894531 -13.34375 10.78125 -13.34375 C 10.6875 -13.34375 10.609375 -13.210938 10.546875 -12.953125 C 10.472656 -12.546875 10.394531 -12.179688 10.3125 -11.859375 C 10.238281 -11.535156 10.128906 -11.257812 9.984375 -11.03125 C 9.847656 -10.800781 9.65625 -10.625 9.40625 -10.5 C 9.164062 -10.382812 8.832031 -10.328125 8.40625 -10.328125 L 6.15625 -10.328125 L 6.15625 -18.703125 L 10.5 -18.703125 C 11.144531 -18.703125 11.6875 -18.546875 12.125 -18.234375 C 12.5625 -17.921875 12.910156 -17.53125 13.171875 -17.0625 C 13.441406 -16.601562 13.632812 -16.109375 13.75 -15.578125 C 13.875 -15.054688 13.945312 -14.585938 13.96875 -14.171875 C 13.96875 -13.898438 14.046875 -13.765625 14.203125 -13.765625 C 14.335938 -13.765625 14.40625 -13.890625 14.40625 -14.140625 L 14.40625 -18.484375 C 14.40625 -18.929688 14.164062 -19.15625 13.6875 -19.15625 L 0.9375 -19.15625 L 0.9375 -18.703125 L 3.390625 -18.703125 L 3.390625 -0.453125 L 0.96875 -0.453125 L 0.96875 0 L 14.375 0 C 14.925781 0 15.203125 -0.300781 15.203125 -0.90625 L 15.203125 -5.1875 C 15.203125 -5.644531 15.125 -5.875 14.96875 -5.875 C 14.832031 -5.875 14.726562 -5.675781 14.65625 -5.28125 C 14.5 -4.550781 14.335938 -3.890625 14.171875 -3.296875 C 14.003906 -2.710938 13.773438 -2.207031 13.484375 -1.78125 C 13.203125 -1.351562 12.84375 -1.023438 12.40625 -0.796875 C 11.96875 -0.566406 11.414062 -0.453125 10.75 -0.453125 L 6.15625 -0.453125 Z M 6.15625 -9.859375 "/></g></g></g><g fill="#5e6c5b" fill-opacity="1"><g transform="translate(275.166201, 200.453411)"><g><path d="M 16.28125 -5.78125 C 16.1875 -5.78125 16.09375 -5.675781 16 -5.46875 C 15.65625 -4.695312 15.28125 -3.972656 14.875 -3.296875 C 14.476562 -2.617188 14.023438 -2.03125 13.515625 -1.53125 C 13.003906 -1.039062 12.429688 -0.65625 11.796875 -0.375 C 11.171875 -0.101562 10.476562 0.03125 9.71875 0.03125 C 7.988281 0.03125 6.707031 -0.640625 5.875 -1.984375 C 5.039062 -3.335938 4.625 -5.316406 4.625 -7.921875 L 4.625 -11.125 C 4.625 -13.632812 5.050781 -15.566406 5.90625 -16.921875 C 6.757812 -18.285156 8.078125 -18.96875 9.859375 -18.96875 C 10.609375 -18.96875 11.285156 -18.847656 11.890625 -18.609375 C 12.492188 -18.367188 13.039062 -18.039062 13.53125 -17.625 C 14.03125 -17.207031 14.460938 -16.703125 14.828125 -16.109375 C 15.191406 -15.523438 15.488281 -14.890625 15.71875 -14.203125 C 15.769531 -14.015625 15.832031 -13.921875 15.90625 -13.921875 C 16 -13.921875 16.046875 -14.03125 16.046875 -14.25 L 16.046875 -18.90625 C 16.046875 -19.070312 16.023438 -19.179688 15.984375 -19.234375 C 15.953125 -19.296875 15.898438 -19.328125 15.828125 -19.328125 C 15.734375 -19.328125 15.609375 -19.253906 15.453125 -19.109375 L 14.34375 -17.96875 C 13.738281 -18.457031 13.054688 -18.828125 12.296875 -19.078125 C 11.535156 -19.335938 10.722656 -19.46875 9.859375 -19.46875 C 8.609375 -19.46875 7.445312 -19.179688 6.375 -18.609375 C 5.300781 -18.046875 4.367188 -17.296875 3.578125 -16.359375 C 2.785156 -15.429688 2.171875 -14.375 1.734375 -13.1875 C 1.296875 -12 1.078125 -10.796875 1.078125 -9.578125 C 1.078125 -8.171875 1.328125 -6.851562 1.828125 -5.625 C 2.335938 -4.40625 3 -3.335938 3.8125 -2.421875 C 4.632812 -1.515625 5.554688 -0.789062 6.578125 -0.25 C 7.609375 0.28125 8.65625 0.546875 9.71875 0.546875 C 10.613281 0.546875 11.46875 0.367188 12.28125 0.015625 C 13.101562 -0.335938 13.835938 -0.875 14.484375 -1.59375 L 16 0.0625 C 16.09375 0.15625 16.175781 0.203125 16.25 0.203125 C 16.363281 0.203125 16.421875 0.132812 16.421875 0 L 16.421875 -5.5 C 16.421875 -5.6875 16.375 -5.78125 16.28125 -5.78125 Z M 16.28125 -5.78125 "/></g></g></g><g fill="#5e6c5b" fill-opacity="1"><g transform="translate(296.722153, 200.453411)"><g><path d="M 10.296875 -0.453125 L 10.296875 -18.703125 L 12.75 -18.703125 C 13.625 -18.703125 14.390625 -18.253906 15.046875 -17.359375 C 15.703125 -16.472656 16.132812 -15.257812 16.34375 -13.71875 L 16.9375 -13.71875 L 16.515625 -18.671875 C 16.492188 -18.992188 16.300781 -19.15625 15.9375 -19.15625 L 1.875 -19.15625 C 1.519531 -19.15625 1.332031 -18.992188 1.3125 -18.671875 L 0.890625 -13.71875 L 1.484375 -13.71875 C 1.691406 -15.257812 2.125 -16.472656 2.78125 -17.359375 C 3.4375 -18.253906 4.203125 -18.703125 5.078125 -18.703125 L 7.53125 -18.703125 L 7.53125 -0.453125 L 5.078125 -0.453125 L 5.078125 0 L 12.75 0 L 12.75 -0.453125 Z M 10.296875 -0.453125 "/></g></g></g></svg>